<svg width="48" height="48" viewBox="0 0 48 48" fill="none" xmlns="http://www.w3.org/2000/svg">
<rect width="48" height="48" rx="10.3784" fill="white"/>
<path d="M21.1802 7.78369C22.7376 7.78395 23.9996 9.0466 23.9996 10.604V17.5688L23.8101 17.3892C21.8156 15.5871 18.7363 15.6468 16.814 17.5688C14.8301 19.5528 14.8307 22.7691 16.814 24.7534C14.83 26.7375 14.8302 29.9547 16.814 31.939C18.7363 33.861 21.8156 33.9207 23.8101 32.1187L23.9996 31.939C25.9838 33.923 29.2009 33.923 31.1851 31.939C32.4122 30.7117 32.8793 29.0134 32.5884 27.4263C36.8701 27.8448 40.2163 31.4547 40.2164 35.8462V38.1011C40.2163 39.2692 39.2692 40.2162 38.1011 40.2163H21.4449C21.1879 40.2163 20.9354 40.1461 20.7154 40.0132L18.8834 38.9058C18.4085 38.6188 17.8096 38.6373 17.3531 38.9526L15.8853 39.9663C15.6497 40.129 15.3699 40.2163 15.0836 40.2163H9.89899C8.73085 40.2163 7.78381 39.2692 7.78375 38.1011V28.2651C7.78378 27.308 7.9381 26.3568 8.24078 25.4487L8.53375 24.5698C9.18658 22.6114 9.10901 20.4823 8.315 18.5767C7.96437 17.7351 7.78375 16.8321 7.78375 15.9204V10.604C7.78375 9.04644 9.0465 7.78369 10.6041 7.78369H21.1802ZM24.3394 23.0894C24.6795 24.0861 25.2604 24.9704 26.0132 25.6743C25.738 26.3879 25.0474 26.8948 24.2369 26.895C23.1847 26.8949 22.3306 26.042 22.3306 24.9897C22.3308 23.9377 23.1848 23.0846 24.2369 23.0845C24.2712 23.0845 24.3055 23.0876 24.3394 23.0894Z" fill="#FF80CA"/>
</svg>
