<svg width="48" height="48" viewBox="0 0 48 48" fill="none" xmlns="http://www.w3.org/2000/svg">
<rect width="48" height="48" rx="10.3784" fill="white"/>
<path d="M21.1802 7.78369C22.7375 7.78395 23.9995 9.0466 23.9995 10.604V17.5688L23.8101 17.3892C21.8156 15.5871 18.7362 15.6468 16.814 17.5688C14.83 19.5528 14.8307 22.7691 16.814 24.7534C14.8299 26.7375 14.8301 29.9547 16.814 31.939C18.7362 33.861 21.8156 33.9207 23.8101 32.1187L23.9995 31.939C25.9837 33.923 29.2008 33.923 31.1851 31.939C32.4122 30.7117 32.8792 29.0134 32.5884 27.4263C36.87 27.8448 40.2162 31.4547 40.2163 35.8462V38.1011C40.2162 39.2692 39.2692 40.2162 38.1011 40.2163H21.4448C21.1878 40.2163 20.9353 40.1461 20.7153 40.0132L18.8833 38.9058C18.4084 38.6188 17.8096 38.6373 17.353 38.9526L15.8853 39.9663C15.6497 40.129 15.3698 40.2163 15.0835 40.2163H9.89893C8.73079 40.2163 7.78375 39.2692 7.78369 38.1011V28.2651C7.78372 27.308 7.93804 26.3568 8.24072 25.4487L8.53369 24.5698C9.18652 22.6114 9.10895 20.4823 8.31494 18.5767C7.9643 17.7351 7.78369 16.8321 7.78369 15.9204V10.604C7.78369 9.04644 9.04644 7.78369 10.604 7.78369H21.1802ZM24.3394 23.0894C24.6794 24.0861 25.2604 24.9704 26.0132 25.6743C25.7379 26.3879 25.0474 26.8948 24.2368 26.895C23.1846 26.8949 22.3306 26.042 22.3306 24.9897C22.3307 23.9377 23.1847 23.0846 24.2368 23.0845C24.2712 23.0845 24.3055 23.0875 24.3394 23.0894Z" fill="#31AF89"/>
</svg>
