<svg width="99" height="21" viewBox="0 0 99 21" fill="none" xmlns="http://www.w3.org/2000/svg">
<path d="M66.5003 8.91046H68.0271V11.2132H59.3668V15.5684H56.6135V11.2132H47.6028V8.91046H53.5849C54.2357 7.05826 54.536 4.80557 54.5861 2.65301H48.1284V0.325239H57.2393V1.82703C57.2393 4.33001 56.8638 6.88305 56.2381 8.91046H63.8471C64.4979 7.05826 64.7983 4.78054 64.8483 2.65301H58.1403V0.325239H67.5015V1.82703C67.5015 4.30498 67.126 6.88305 66.5003 8.91046ZM50.8817 13.566V18.0964H67.7017V20.3991H48.1284V13.566H50.8817Z" fill="#2C2E31"/>
<path d="M40.2959 12.3647V0H42.9741V4.85578H45.4771V7.25864H42.9741V12.3647H40.2959ZM23.9765 11.1633V4.78069H33.8383V2.30274H23.9265V0.300358H36.4914V6.60787H26.6547V9.16091H37.2924V11.1633H23.9765ZM34.0385 21C27.4557 21 24.4521 19.8737 24.4521 17.0703C24.4521 14.3671 27.0038 13.3909 33.2613 13.0656H34.1636C40.7215 13.0656 43.6249 14.3921 43.6249 17.0703C43.6249 19.8737 40.6964 21 34.0385 21ZM34.0385 19.0226C39.0194 19.0226 40.8466 18.2718 40.8466 17.0203C40.8466 15.7938 38.9443 14.9178 34.0385 14.9178C29.0075 14.9178 27.2304 15.7938 27.2304 17.0203C27.2304 18.2718 29.0826 19.0226 34.0385 19.0226Z" fill="#2C2E31"/>
<path d="M19.4482 8.51013H22.0763V11.0381H19.4482V20.5244H16.77V0H19.4482V8.51013ZM8.56019 9.61144C8.56019 12.1645 8.25983 14.267 7.65912 15.919L14.0918 17.9464L13.2908 20.6496L6.60787 18.0215C5.4565 19.6234 3.85459 20.4243 1.82718 20.4243C1.22646 20.4243 0.600715 20.3492 0 20.199L0.350417 17.5959C0.800954 17.7211 1.30155 17.7962 1.75209 17.7962C4.48033 17.7962 5.882 15.0679 5.882 9.36114V0.425507H8.56019V9.61144Z" fill="#2C2E31"/>
<path d="M86.3552 0.418552C87.3234 0.418552 88.108 1.20333 88.1082 2.17148V6.50156L87.991 6.38926C86.7511 5.26883 84.8365 5.30594 83.6414 6.50058C82.4467 7.69552 82.4081 9.61028 83.5281 10.8502L83.6414 10.9684L83.5291 11.0855C82.4088 12.3254 82.4457 14.2401 83.6404 15.4352C84.8354 16.6301 86.751 16.6678 87.991 15.5475L88.1082 15.4352C89.3417 16.6685 91.3424 16.6684 92.5759 15.4352C93.3383 14.6724 93.6275 13.6169 93.447 12.6305C96.1094 12.8902 98.1902 15.1343 98.1902 17.8648V19.2662C98.1902 19.9924 97.601 20.5816 96.8748 20.5816H86.5203C86.3604 20.5816 86.203 20.5374 86.0662 20.4547L84.9275 19.7672C84.6323 19.5888 84.2602 19.5996 83.9763 19.7955L83.0632 20.4264C82.9169 20.5274 82.743 20.5816 82.5652 20.5816H79.3425C78.6163 20.5816 78.0271 19.9924 78.0271 19.2662V13.152C78.0271 12.5569 78.1231 11.9655 78.3113 11.401L78.4939 10.8541C78.8997 9.63658 78.8508 8.31317 78.3572 7.12851C78.1392 6.60529 78.0271 6.04396 78.0271 5.47715V2.17148C78.0273 1.20345 78.812 0.41875 79.78 0.418552H86.3552ZM88.3191 9.93418C88.5303 10.5533 88.8918 11.1022 89.3591 11.5396C89.1883 11.984 88.7591 12.3004 88.2546 12.3004C87.6009 12.3001 87.0704 11.7696 87.0701 11.1158C87.0701 10.4618 87.6007 9.93156 88.2546 9.93125C88.2762 9.93125 88.2978 9.93304 88.3191 9.93418Z" fill="#FF80CA"/>
</svg>
