<svg width="91" height="28" viewBox="0 0 91 28" fill="none" xmlns="http://www.w3.org/2000/svg">
<rect width="90.8115" height="28" rx="14" fill="white"/>
<path d="M46.8167 16.2858V19.7379H59.6321V21.5924H44.6194V16.2858H46.8167ZM51.6604 6.19788V7.39221C51.6604 9.27727 51.3808 11.1996 50.9143 12.7389H56.6086C57.0891 11.3551 57.3154 9.66149 57.3567 8.07092H52.2473V6.19788H59.4797V7.39221C59.4797 9.25839 59.2002 11.1991 58.7336 12.7389H59.8801V14.5934H53.2815V17.9117H51.0842V14.5934H44.219V12.7389H48.7903C49.2707 11.3552 49.4961 9.67951 49.5374 8.07092H44.6194V6.19788H51.6604Z" fill="#43464A" stroke="#43464A" stroke-width="0.1"/>
<path d="M34.0295 15.9043C36.5294 15.9043 38.3403 16.157 39.5276 16.6689C40.1218 16.9252 40.5627 17.2481 40.8547 17.6387C41.1471 18.0298 41.2883 18.4863 41.2883 19.0059C41.2883 19.5491 41.1458 20.0146 40.8499 20.4053C40.5544 20.7952 40.1085 21.1076 39.5071 21.3506C38.3057 21.8359 36.471 22.0498 33.9338 22.0498C31.4255 22.0498 29.5915 21.8358 28.3831 21.3506C27.7781 21.1076 27.3266 20.7952 27.0266 20.4053C26.7261 20.0146 26.5803 19.5494 26.5803 19.0059C26.5803 18.4827 26.7042 18.0392 26.968 17.666C27.2315 17.2934 27.6316 16.9944 28.178 16.7549C29.2691 16.2765 30.9554 16.0283 33.3391 15.9043H34.0295ZM33.9338 17.416C32.019 17.416 30.7287 17.5824 29.9192 17.8633C29.1092 18.1443 28.7971 18.5327 28.7971 18.9678C28.7971 19.1921 28.8796 19.3945 29.0618 19.5732C29.2453 19.7532 29.5315 19.9112 29.9397 20.041C30.7568 20.3008 32.0472 20.4433 33.9338 20.4434C35.8302 20.4434 37.1211 20.3008 37.9358 20.041C38.3427 19.9113 38.6268 19.7531 38.8088 19.5732C38.9895 19.3946 39.0715 19.1923 39.0715 18.9678C39.0715 18.5339 38.7369 18.1449 37.9133 17.8633C37.0916 17.5823 35.801 17.416 33.9338 17.416ZM40.7922 5.9502V9.64941H42.6995V11.5801H40.7922V15.4707H38.6516V5.9502H40.7922ZM35.8528 6.17871V11.085H28.3586V12.9297H36.4631V14.5557H26.218V9.59277H33.7317V7.80469H26.1799V6.17871H35.8528Z" fill="#43464A" stroke="#43464A" stroke-width="0.1"/>
<path d="M14.5723 6.27441V13.3232C14.5722 15.2463 14.3478 16.8375 13.8994 18.0957L18.752 19.626L18.7988 19.6406L18.7842 19.6875L18.1738 21.7471L18.1592 21.7998L18.1084 21.7793L13.0508 19.791C12.1656 21.0036 10.9389 21.6112 9.39258 21.6113C8.93099 21.6113 8.44984 21.5538 7.98828 21.4385L7.94434 21.4277L7.9502 21.3828L8.21777 19.3994L8.22461 19.3428L8.28027 19.3584C8.61973 19.4527 8.99676 19.5088 9.33496 19.5088C9.84583 19.5088 10.2925 19.3817 10.6758 19.125C11.0593 18.8681 11.3821 18.4796 11.6426 17.9541C12.1642 16.9014 12.4316 15.3034 12.4316 13.1318V6.27441H14.5723ZM22.8672 5.9502V12.4336H24.8701V14.46H22.8672V21.6875H20.7275V5.9502H22.8672Z" fill="#43464A" stroke="#43464A" stroke-width="0.1"/>
<path d="M73.7949 6.31885C74.5325 6.31909 75.1299 6.91717 75.1299 7.65479V10.9536C74.19 10.0141 72.6663 10.0139 71.7266 10.9536C70.8458 11.8346 70.79 13.2291 71.5605 14.1743L71.7266 14.3569H71.7256C70.7862 15.2969 70.7869 16.8215 71.7266 17.7612C72.6663 18.7004 74.1901 18.7004 75.1299 17.7612V17.7583L75.1309 17.7612C76.0707 18.7002 77.5946 18.7006 78.5342 17.7612C79.1156 17.1798 79.3354 16.3746 79.1973 15.6226C81.2258 15.8202 82.8113 17.5305 82.8115 19.6108V20.6792C82.8115 21.2325 82.3629 21.6811 81.8096 21.6812H73.9199C73.7981 21.6812 73.6784 21.6475 73.5742 21.5845L72.707 21.0601C72.4821 20.9241 72.1977 20.9331 71.9814 21.0825L71.2861 21.563C71.1747 21.6398 71.0426 21.6811 70.9072 21.6812H68.4512C67.8979 21.6812 67.4492 21.2325 67.4492 20.6792V16.02C67.4493 15.5667 67.5227 15.1161 67.666 14.686L67.8047 14.27C68.1139 13.3424 68.0773 12.3338 67.7012 11.4312C67.5351 11.0326 67.4493 10.6051 67.4492 10.1733V7.65479C67.4492 6.91702 68.0474 6.31885 68.7852 6.31885H73.7949ZM75.293 13.5688C75.4538 14.0399 75.7284 14.4565 76.084 14.7896C75.9545 15.1292 75.6274 15.3715 75.2422 15.3716C74.7439 15.3716 74.3401 14.9675 74.3398 14.4692C74.3399 13.9708 74.7438 13.5669 75.2422 13.5669C75.2592 13.5669 75.2761 13.5679 75.293 13.5688Z" fill="#31AF89"/>
</svg>
